<?xml version="1.0" encoding="UTF-8" standalone="no"?>
<!DOCTYPE svg PUBLIC "-//W3C//DTD SVG 1.1//EN" "http://www.w3.org/Graphics/SVG/1.1/DTD/svg11.dtd">
<svg width="100%" height="100%" viewBox="0 0 1418 1418" version="1.1" xmlns="http://www.w3.org/2000/svg" xmlns:xlink="http://www.w3.org/1999/xlink" xml:space="preserve" xmlns:serif="http://www.serif.com/" style="fill-rule:evenodd;clip-rule:evenodd;stroke-linejoin:round;stroke-miterlimit:1.41421;">
    <g transform="matrix(1,0,0,1,-0.611465,-27.9796)">
        <rect x="-170.911" y="105.177" width="1698.53" height="1208.83" style="fill:rgb(112,167,191);"/>
    </g>
    <g transform="matrix(1,0,0,1,8,0)">
        <path d="M1205.53,731.146L1296,731.146L1296,1177.95L1205.53,1177.95L1205.53,731.146ZM1089.87,731.146L1180.35,731.146L1180.35,1177.95L1089.87,1177.95L1089.87,731.146ZM119.265,708.661L209.741,708.661L209.741,1118.97L119.265,1118.97L119.265,708.661ZM418.468,681.611L427.604,681.611L427.604,606.758L439.272,606.758L439.272,536.255L445.758,536.255L445.758,606.758L457.427,606.758L457.427,681.611L466.563,681.611L466.563,1091.92L418.468,1091.92L418.468,681.611Z" style="fill:rgb(105,158,180);"/>
    </g>
    <g transform="matrix(1,0,0,1,0,10)">
        <g>
            <path d="M477.357,953.003L477.357,840.14L505.584,840.14L505.584,739.134L513.833,739.134L513.833,687.904L562.549,687.904L562.549,739.134L570.797,739.134L570.797,840.14L599.025,840.14L599.025,982.109L664.238,982.109L664.238,972.149C664.238,912.954 711.211,864.643 769.885,862.491L769.885,840.852L778.056,840.852L778.056,862.491C836.729,864.643 883.703,912.954 883.703,972.149L884.053,972.149L884.053,1002.74L920.471,1002.74L920.471,991.415L942.53,991.415L942.53,980.745L964.59,980.745L964.59,969.9L986.649,969.9L986.649,951.722L1008.71,951.722L1008.71,936.053L1032.5,936.053L1032.5,915.362L1040.67,915.362L1040.67,936.053L1067.86,936.053L1067.86,951.722L1078.35,951.722L1078.35,979.636L1127.06,979.636L1127.06,1004.22L1170.86,1004.22L1170.86,952.737L1261.34,952.737L1261.34,1004.22L1303.78,1004.22L1303.78,1266.82L1067.86,1266.82L1067.86,1242.23L1036.58,1242.23L1036.58,1214.32L1008.71,1214.32L1008.71,1221.69L986.649,1221.69L986.649,1232.53L964.59,1232.53L964.59,1243.2L928.477,1243.2L708.661,1243.2L708.661,1212.62L672.168,1212.62L672.168,1222.58L599.025,1222.58L599.025,1267.88L477.357,1267.88L409.725,1267.88L288.057,1267.88L-33.826,1267.88L-33.826,953.003L268.923,953.003L268.923,930.631L288.057,930.631L288.057,840.14L409.725,840.14L409.725,930.631L428.859,930.631L428.859,953.003L477.357,953.003Z" style="fill:rgb(83,128,146);"/>
        </g>
    </g>
    <g>
        <g transform="matrix(0.958322,0,0,0.919346,454.51,-23.1098)">
            <g transform="matrix(1,0,0,1,-28.1742,0)">
                <g>
                    <rect x="151.501" y="1223" width="261.416" height="42.463" style="fill:rgb(246,140,76);"/>
                    <g transform="matrix(1,0,0,0.155872,7.09566e-12,1035.61)">
                        <rect x="151.501" y="1223" width="261.416" height="42.463" style="fill:rgb(197,113,60);"/>
                    </g>
                    <g>
                        <g>
                            <rect x="154.853" y="1099.36" width="254.824" height="126.877" style="fill:rgb(144,195,230);"/>
                            <path d="M400.958,1099.36L407.437,1099.36L407.437,1102.37L409.677,1102.37L409.677,1108.85L407.437,1108.85L407.437,1226.24L400.958,1226.24L400.958,1108.85L275.729,1108.85L275.729,1226.24L269.25,1226.24L269.25,1108.85L154.853,1108.85L154.853,1102.37L269.25,1102.37L269.25,1099.36L275.729,1099.36L275.729,1102.37L400.958,1102.37L400.958,1099.36Z" style="fill:rgb(117,159,187);"/>
                            <g transform="matrix(1,0,0,3.38472,0,-2930.92)">
                                <rect x="151.501" y="1189.77" width="6.48" height="39.271" style="fill:rgb(235,235,235);"/>
                            </g>
                            <g transform="matrix(1,0,0,3.23079,254.936,-2744.55)">
                                <rect x="151.501" y="1189.77" width="6.48" height="39.271" style="fill:rgb(235,235,235);"/>
                            </g>
                            <g transform="matrix(1,0,0,3.38472,124.228,-2930.92)">
                                <rect x="151.501" y="1189.77" width="6.48" height="39.271" style="fill:rgb(235,235,235);"/>
                            </g>
                            <g transform="matrix(6.12323e-17,-1,6.6567,4.07605e-16,-7768.46,1380.98)">
                                <rect x="151.501" y="1189.77" width="6.48" height="39.271" style="fill:rgb(235,235,235);"/>
                            </g>
                            <g transform="matrix(6.12323e-17,-1,6.6567,4.07605e-16,-7768.46,1254.1)">
                                <rect x="151.501" y="1189.77" width="6.48" height="39.271" style="fill:rgb(235,235,235);"/>
                            </g>
                        </g>
                        <g transform="matrix(-0.227541,0.000632815,-0.000632815,-0.227541,401.403,1409.49)">
                            <g transform="matrix(1.05844,0,0,1.05844,-14.9565,-69.1062)">
                                <path d="M153.771,1032.16C183.315,1010.91 221.999,998.029 264.318,998.029C301.266,998.029 335.442,1007.85 363.184,1024.48L255.872,1182.54L153.771,1032.16Z" style="fill:rgb(246,141,76);fill-opacity:0.219608;"/>
                            </g>
                            <path d="M153.771,1032.16C183.315,1010.91 221.999,998.029 264.318,998.029C301.266,998.029 335.442,1007.85 363.184,1024.48L255.872,1182.54L153.771,1032.16Z" style="fill:rgb(255,242,115);fill-opacity:0.231373;"/>
                            <g transform="matrix(1,0,0,1,1.00654,20.164)">
                                <path d="M253.175,1087.88L253.175,992.039L258.564,992.039L258.564,992.265L258.569,992.265L258.569,1087.66L275.341,992.541L280.647,993.477L263.867,1088.64L296.833,998.069L301.896,999.912L269.7,1088.37L316.998,1006.45L321.665,1009.14L275.473,1089.15L335.224,1017.94L339.352,1021.4L259.959,1116.02L259.088,1117.53L258.569,1118.95L258.569,1119.91L253.986,1119.91L253.506,1120.09L253.442,1119.91L253.181,1119.91L253.181,1119.68L253.175,1119.68L253.175,1119.18L252.656,1117.75L251.785,1116.24L172.392,1021.63L176.52,1018.16L236.271,1089.37L190.08,1009.37L194.746,1006.67L242.044,1088.59L209.848,1000.14L214.911,998.295L247.877,1088.87L231.097,993.702L236.403,992.767L253.175,1087.88Z" style="fill:rgb(246,141,76);fill-opacity:0.207843;"/>
                            </g>
                            <path d="M216.558,1124.63C227.935,1116.45 242.831,1111.49 259.128,1111.49C273.356,1111.49 286.517,1115.27 297.199,1121.67L255.875,1182.54L216.558,1124.63Z" style="fill:rgb(246,141,76);fill-opacity:0.168627;"/>
                        </g>
                        <g transform="matrix(-0.227541,0.000632815,-0.000632815,-0.227541,268.58,1411.47)">
                            <g transform="matrix(1.05844,0,0,1.05844,-14.9565,-69.1062)">
                                <path d="M153.771,1032.16C183.315,1010.91 221.999,998.029 264.318,998.029C301.266,998.029 335.442,1007.85 363.184,1024.48L255.872,1182.54L153.771,1032.16Z" style="fill:rgb(246,141,76);fill-opacity:0.219608;"/>
                            </g>
                            <path d="M153.771,1032.16C183.315,1010.91 221.999,998.029 264.318,998.029C301.266,998.029 335.442,1007.85 363.184,1024.48L255.872,1182.54L153.771,1032.16Z" style="fill:rgb(255,242,115);fill-opacity:0.231373;"/>
                            <g transform="matrix(1,0,0,1,1.00654,20.164)">
                                <path d="M253.175,1087.88L253.175,992.039L258.564,992.039L258.564,992.265L258.569,992.265L258.569,1087.66L275.341,992.541L280.647,993.477L263.867,1088.64L296.833,998.069L301.896,999.912L269.7,1088.37L316.998,1006.45L321.665,1009.14L275.473,1089.15L335.224,1017.94L339.352,1021.4L259.959,1116.02L259.088,1117.53L258.569,1118.95L258.569,1119.91L253.986,1119.91L253.506,1120.09L253.442,1119.91L253.181,1119.91L253.181,1119.68L253.175,1119.68L253.175,1119.18L252.656,1117.75L251.785,1116.24L172.392,1021.63L176.52,1018.16L236.271,1089.37L190.08,1009.37L194.746,1006.67L242.044,1088.59L209.848,1000.14L214.911,998.295L247.877,1088.87L231.097,993.702L236.403,992.767L253.175,1087.88Z" style="fill:rgb(246,141,76);fill-opacity:0.207843;"/>
                            </g>
                            <path d="M216.558,1124.63C227.935,1116.45 242.831,1111.49 259.128,1111.49C273.356,1111.49 286.517,1115.27 297.199,1121.67L255.875,1182.54L216.558,1124.63Z" style="fill:rgb(246,141,76);fill-opacity:0.168627;"/>
                        </g>
                    </g>
                    <g transform="matrix(1.96039e-16,-3.20156,6.6567,4.07605e-16,-7768.46,1581.16)">
                        <rect x="151.501" y="1189.77" width="6.48" height="39.271" style="fill:rgb(246,140,76);"/>
                    </g>
                </g>
            </g>
            <g transform="matrix(1,0,0,1,-28.1742,0)">
                <g>
                    <g transform="matrix(1.02225,0,0,1,-16.2435,0)">
                        <rect x="446.563" y="1070.32" width="283.4" height="195.138" style="fill:rgb(235,236,236);"/>
                    </g>
                    <g>
                        <g transform="matrix(0.980859,0,0,0.980859,2.73585,24.2224)">
                            <g transform="matrix(1,0,0,1,0,0.248188)">
                                <circle cx="458.6" cy="1242.61" r="22.608"/>
                            </g>
                            <g transform="matrix(0.710115,0,0,0.710115,132.941,360.213)">
                                <circle cx="458.6" cy="1242.61" r="22.608" style="fill:rgb(128,128,128);"/>
                            </g>
                            <g transform="matrix(0.157876,0,0,0.157876,386.199,1046.43)">
                                <circle cx="458.6" cy="1242.61" r="22.608"/>
                            </g>
                        </g>
                        <g transform="matrix(0.149179,0,0,0.149179,531.404,1071.76)">
                            <g>
                                <g>
                                    <g>
                                        <g id="Head">
                                            <g transform="matrix(0.733518,0,0,1.29705,141.348,-202.834)">
                                                <rect x="601.927" y="668.886" width="48.139" height="22.695" style="fill:rgb(218,162,132);"/>
                                            </g>
                                            <g transform="matrix(1,0,0,1,-64.8791,0.3324)">
                                                <ellipse cx="647.751" cy="589.699" rx="85.184" ry="88.176" style="fill:rgb(218,162,132);"/>
                                            </g>
                                        </g>
                                        <path id="Hair2_blond" d="M582.872,551.211L497.687,551.211C497.687,516.156 535.857,487.697 582.872,487.697C618.876,487.697 649.694,504.388 662.153,527.949C672.884,543.841 676.271,597.714 676.271,618.197C676.271,643.32 662.577,668.656 647.033,685.683C635.831,629.063 613.617,551.537 582.872,551.537L582.872,551.211Z" style="fill:rgb(134,98,35);"/>
                                        <g id="Leg-2" serif:id="Leg 2" transform="matrix(0.943284,0.331986,-0.331986,0.943284,359.965,-163.182)">
                                            <g id="leg2_t" transform="matrix(0.981674,-0.19057,0.140604,0.724286,-49.1427,380.981)">
                                                <path d="M519.515,1005.69C519.515,987.336 534.824,972.437 553.68,972.437C572.537,972.437 587.846,987.336 587.846,1005.69L587.846,1208.69C587.846,1227.05 572.537,1241.94 553.68,1241.94C534.824,1241.94 519.515,1227.05 519.515,1208.69L519.515,1005.69Z" style="fill:rgb(48,78,128);"/>
                                            </g>
                                            <g id="leg2_b" transform="matrix(0.734094,-0.679048,0.501007,0.54162,-249.191,974.486)">
                                                <path d="M519.515,1005.69C519.515,987.336 534.824,972.437 553.68,972.437C572.537,972.437 587.846,987.336 587.846,1005.69L587.846,1208.69C587.846,1227.05 572.537,1241.94 553.68,1241.94C534.824,1241.94 519.515,1227.05 519.515,1208.69L519.515,1005.69Z" style="fill:rgb(48,78,128);"/>
                                            </g>
                                        </g>
                                        <g id="Torso" transform="matrix(0.727509,0,0,0.891966,142.829,12.7068)">
                                            <path d="M517.775,829.346C517.775,786.264 566.052,751.288 625.514,751.288C684.977,751.288 733.254,786.265 733.254,829.346L733.254,1064.95C733.254,1108.03 684.977,1143.01 625.514,1143.01C566.051,1143.01 517.775,1108.03 517.775,1064.95L517.775,829.346Z" style="fill:rgb(246,140,76);"/>
                                        </g>
                                        <g id="Torso1" serif:id="Torso" transform="matrix(1,0,0,1,-344.863,4.43532)">
                                            <path d="M1021.14,792.811L1021.14,958.168C1021.14,996.595 986.019,1027.79 942.759,1027.79C899.499,1027.79 864.378,996.595 864.378,958.168L864.378,792.811L1021.14,792.811Z" style="fill:rgb(48,78,127);"/>
                                        </g>
                                        <g id="Torso2" serif:id="Torso" transform="matrix(1,0,0,1,-343.198,6.79365)">
                                            <path d="M1019.48,951.802L1019.48,955.809C1019.48,994.237 984.354,1025.43 941.094,1025.43C897.834,1025.43 862.713,994.237 862.713,955.809L862.713,951.802L1019.48,951.802Z" style="fill:rgb(48,78,127);"/>
                                        </g>
                                        <g transform="matrix(0.899411,0.437105,-0.437105,0.899411,381.677,-188.617)">
                                            <g id="Arm-in-walking-mode1" serif:id="Arm in walking mode1">
                                                <g id="Arm-1" serif:id="Arm 1">
                                                    <g id="arm1_t" transform="matrix(-0.144802,0.609872,-0.63741,-0.15134,1309.29,547.613)">
                                                        <path d="M519.515,1005.69C519.515,987.336 534.824,972.437 553.68,972.437C572.537,972.437 587.846,987.336 587.846,1005.69L587.846,1208.69C587.846,1227.05 572.537,1241.94 553.68,1241.94C534.824,1241.94 519.515,1227.05 519.515,1208.69L519.515,1005.69Z" style="fill:rgb(246,140,76);"/>
                                                    </g>
                                                    <g id="arm1_b" transform="matrix(-0.548633,0.303172,-0.321207,-0.581269,1082.65,1117.13)">
                                                        <path d="M519.515,1005.69C519.515,987.336 534.824,972.437 553.68,972.437C572.537,972.437 587.846,987.336 587.846,1005.69L587.846,1208.69C587.846,1227.05 572.537,1241.94 553.68,1241.94C534.824,1241.94 519.515,1227.05 519.515,1208.69L519.515,1005.69Z" style="fill:rgb(246,140,76);"/>
                                                    </g>
                                                </g>
                                            </g>
                                        </g>
                                        <g id="Leg-1" serif:id="Leg 1" transform="matrix(1,0,0,1,13.8577,-1.13687e-13)">
                                            <g id="leg1_b" transform="matrix(0.999264,-0.0383671,0.0283076,0.737264,-57.6655,404.005)">
                                                <path d="M519.515,1005.69C519.515,987.336 534.824,972.437 553.68,972.437C572.537,972.437 587.846,987.336 587.846,1005.69L587.846,1208.69C587.846,1227.05 572.537,1241.94 553.68,1241.94C534.824,1241.94 519.515,1227.05 519.515,1208.69L519.515,1005.69Z" style="fill:rgb(48,78,128);"/>
                                            </g>
                                            <g id="leg1_t" transform="matrix(0.96204,0.272908,-0.201354,0.7098,234.183,119.035)">
                                                <path d="M519.515,1005.69C519.515,987.336 534.824,972.437 553.68,972.437C572.537,972.437 587.846,987.336 587.846,1005.69L587.846,1208.69C587.846,1227.05 572.537,1241.94 553.68,1241.94C534.824,1241.94 519.515,1227.05 519.515,1208.69L519.515,1005.69Z" style="fill:rgb(48,78,128);"/>
                                            </g>
                                        </g>
                                    </g>
                                </g>
                            </g>
                        </g>
                        <g>
                            <g transform="matrix(0.83048,0,0,0.83048,208.068,-74.3419)">
                                <g transform="matrix(1.20412,0,0,1.20412,-250.539,89.5168)">
                                    <rect x="449.575" y="1068.57" width="244.892" height="34.147" style="fill:rgb(128,128,128);"/>
                                </g>
                                <g transform="matrix(1,0,0,1,109.558,12.2633)">
                                    <ellipse cx="328.687" cy="1395.39" rx="4.355" ry="4.569" style="fill:rgb(103,103,103);"/>
                                </g>
                                <g transform="matrix(0.425655,0,0,0.00511699,138.642,1387.55)">
                                    <rect x="386.153" y="869.902" width="635.419" height="547.421" style="fill:rgb(103,103,103);"/>
                                </g>
                            </g>
                            <g transform="matrix(1,0,0,1,-0.146474,4.47111)">
                                <g transform="matrix(1,0,0,1,-19.1483,-0.521505)">
                                    <path d="M608.886,1261.51L568.336,1261.51L572.808,1252.86L604.414,1252.86L608.886,1261.51Z" style="fill:rgb(54,55,66);"/>
                                </g>
                                <g transform="matrix(1.1775,0,0,1,-126.98,-23.9679)">
                                    <rect x="529.577" y="1158.67" width="123.982" height="7.142" style="fill:rgb(54,55,66);"/>
                                </g>
                                <g transform="matrix(1,0,0,1,0,-4)">
                                    <path d="M576.547,1145.59L574.047,1145.59L574.047,1185.37L576.547,1185.37L576.547,1264.99L562.631,1264.99L562.631,1185.37L565.131,1185.37L565.131,1145.59L562.631,1145.59L562.631,1143.7L576.547,1143.7L576.547,1145.59Z" style="fill:rgb(53,55,66);"/>
                                </g>
                            </g>
                        </g>
                    </g>
                </g>
                <g>
                    <g>
                        <path d="M878.072,1047.3L878.072,1265.46L690.095,1265.46L690.095,1076.95L451.659,1076.95L451.659,1265.46L411.96,1265.46L411.96,1047.3L451.659,1047.3L451.659,1047.3L878.072,1047.3Z" style="fill:rgb(207,204,131);"/>
                        <path d="M878.072,1265.46L690.095,1265.46L690.095,1256.17L878.072,1256.17L878.072,1265.46ZM411.96,1256.17L451.659,1256.17L451.659,1265.46L411.96,1265.46L411.96,1256.17Z" style="fill:rgb(156,155,100);"/>
                        <g transform="matrix(1,0,0,1,0,-1)">
                            <rect x="411.96" y="1051.16" width="466.113" height="9.719" style="fill:rgb(156,155,100);"/>
                        </g>
                    </g>
                    <g transform="matrix(0.989375,0,0,0.91136,688.202,439.974)">
                        <g transform="matrix(1.41093,0,0,2.3583,-63.8354,-1508.92)">
                            <rect x="137.69" y="964.121" width="26.787" height="29.549" style="fill:white;"/>
                        </g>
                        <g transform="matrix(0.972155,0,0,0.881304,2.45687,-79.3968)">
                            <rect x="137.69" y="964.121" width="26.787" height="29.549" style="fill:rgb(144,195,230);"/>
                        </g>
                        <path d="M162.355,796.329L158.153,796.329L158.153,774.199L136.313,774.199L136.313,770.288L162.355,770.288L162.355,796.329Z" style="fill:rgb(85,118,140);"/>
                        <g transform="matrix(0.972155,0,0,0.881304,2.45687,-47.1932)">
                            <rect x="137.69" y="964.121" width="26.787" height="29.549" style="fill:rgb(144,195,230);"/>
                        </g>
                        <g transform="matrix(1,0,0,1,0,32.2036)">
                            <path d="M162.355,796.329L158.153,796.329L158.153,774.199L136.313,774.199L136.313,770.288L162.355,770.288L162.355,796.329Z" style="fill:rgb(85,118,140);"/>
                        </g>
                    </g>
                    <g transform="matrix(0.842641,0,0,0.705697,404.305,265.261)">
                        <g transform="matrix(1,0,0,1,-21.2949,1.0355)">
                            <rect x="402.929" y="1221.34" width="75.808" height="194.952" style="fill:rgb(152,114,69);"/>
                        </g>
                        <g transform="matrix(0.356764,0,0,1,286.646,1.0355)">
                            <rect x="402.929" y="1221.34" width="75.808" height="194.952" style="fill:rgb(133,99,58);"/>
                        </g>
                        <ellipse cx="438.742" cy="1323.08" rx="4.172" ry="4.267" style="fill:rgb(102,75,41);"/>
                    </g>
                </g>
                <g>
                    <g>
                        <g transform="matrix(1.30884,0,0,1,-127.513,-2)">
                            <path d="M715.486,958.039L772.97,1053.16L408.294,1053.16L465.778,958.039L715.486,958.039Z" style="fill:rgb(197,113,60);"/>
                        </g>
                        <g>
                            <path d="M824.33,938.416L822.866,938.416L822.866,987.908L798.38,987.908L798.38,938.416L796.916,938.416L796.916,934.458L824.33,934.458L824.33,938.416Z" style="fill:rgb(197,113,60);"/>
                        </g>
                    </g>
                    <g>
                        <g transform="matrix(0.867394,0.497622,-0.816846,1.42383,916.742,-653.864)">
                            <rect x="440.256" y="1019.02" width="2.301" height="13.837"/>
                        </g>
                        <g transform="matrix(0.867765,-0.496974,0.815782,1.42444,-479.162,-215.471)">
                            <rect x="440.256" y="1019.02" width="2.301" height="13.837"/>
                        </g>
                        <g transform="matrix(1,0,0,1,12.8463,-12.7933)">
                            <g transform="matrix(1,0,0,1,0.758394,0)">
                                <rect x="452.727" y="1016.39" width="270.504" height="36.768" style="fill:rgb(246,140,76);"/>
                            </g>
                            <g>
                                <g>
                                    <g transform="matrix(0.0261146,0.0208156,-0.0208156,0.0261146,483.068,1006.28)">
                                        <g transform="matrix(1.55287,0,0,1,-183.967,0)">
                                            <rect x="332.746" y="658.348" width="30.053" height="297.989"/>
                                        </g>
                                        <g>
                                            <g transform="matrix(0.875086,0,0,0.813667,44.4795,133.611)">
                                                <path d="M297.109,502.822L297.109,564.291C297.109,580.564 310.321,593.776 326.595,593.776L385.566,593.776C401.84,593.776 415.052,580.564 415.052,564.291L415.052,502.822C434.167,519.709 446.268,544.652 446.268,572.458C446.268,623.27 405.856,664.524 356.081,664.524C306.305,664.524 265.893,623.27 265.893,572.458C265.893,544.652 277.994,519.709 297.109,502.822Z"/>
                                            </g>
                                            <g transform="matrix(1,0,0,1,-5.58899,14.5337)">
                                                <ellipse cx="361.67" cy="625.648" rx="28.923" ry="5.305" style="fill:rgb(88,84,83);"/>
                                            </g>
                                        </g>
                                        <g transform="matrix(-1,-5.55112e-16,5.55112e-16,-1,712.161,1614.69)">
                                            <g transform="matrix(0.875086,0,0,0.813667,44.4795,133.611)">
                                                <path d="M297.109,502.822L297.109,564.291C297.109,580.564 310.321,593.776 326.595,593.776L385.566,593.776C401.84,593.776 415.052,580.564 415.052,564.291L415.052,502.822C434.167,519.709 446.268,544.652 446.268,572.458C446.268,623.27 405.856,664.524 356.081,664.524C306.305,664.524 265.893,623.27 265.893,572.458C265.893,544.652 277.994,519.709 297.109,502.822Z"/>
                                            </g>
                                            <g transform="matrix(1,0,0,1,-5.58899,14.5337)">
                                                <ellipse cx="361.67" cy="625.648" rx="28.923" ry="5.305" style="fill:rgb(88,84,83);"/>
                                            </g>
                                        </g>
                                        <g transform="matrix(1,0,0,0.983817,-5.10851,14.8793)">
                                            <path d="M366.298,672.903C366.298,671.456 365.153,670.28 363.743,670.28L358.635,670.28C357.225,670.28 356.081,671.456 356.081,672.903L356.081,933.719C356.081,935.166 357.225,936.341 358.635,936.341L363.743,936.341C365.153,936.341 366.298,935.166 366.298,933.719L366.298,672.903Z" style="fill:rgb(88,84,83);"/>
                                        </g>
                                    </g>
                                    <g transform="matrix(0.0868766,0,0,0.0868766,405.994,985.364)">
                                        <path d="M890.285,727.044L622.141,727.044L622.141,727.018L711.234,727.018L622.141,568.768L622.141,568.734L711.234,410.525L622.141,410.517L622.141,410.508L979.378,410.508L979.378,410.525L890.285,410.517L979.359,568.776L979.378,568.742L979.378,568.793L890.285,727.044ZM800.759,457.367C862.248,457.367 912.168,507.288 912.168,568.776C912.168,630.264 862.248,680.185 800.759,680.185C739.271,680.185 689.35,630.264 689.35,568.776C689.35,507.288 739.271,457.367 800.759,457.367Z"/>
                                    </g>
                                </g>
                                <g transform="matrix(0.621467,0,0,0.621467,178.125,398.052)">
                                    <text x="508.449px" y="1037.64px" style="font-family:'Copperplate';font-size:50px;">CAR REPAIR</text>
                                </g>
                                <g transform="matrix(-0.0968905,0.000269462,-0.000280963,-0.101026,729.719,1143.43)">
                                    <g transform="matrix(-0.999996,-0.00278109,0.00278109,-0.999996,518.72,2128.47)">
                                        <ellipse cx="264.637" cy="1051.51" rx="137.016" ry="141.488" style="fill:white;"/>
                                    </g>
                                    <g transform="matrix(1.05844,0,0,1.05844,-14.9565,-69.1062)">
                                        <path d="M153.771,1032.16C183.315,1010.91 221.999,998.029 264.318,998.029C301.266,998.029 335.442,1007.85 363.184,1024.48L255.872,1182.54L153.771,1032.16Z" style="fill:rgb(246,141,76);"/>
                                    </g>
                                    <path d="M153.771,1032.16C183.315,1010.91 221.999,998.029 264.318,998.029C301.266,998.029 335.442,1007.85 363.184,1024.48L255.872,1182.54L153.771,1032.16Z" style="fill:rgb(255,242,115);"/>
                                    <g transform="matrix(1,0,0,1,1.00654,20.164)">
                                        <path d="M253.175,1087.88L253.175,992.039L258.564,992.039L258.564,992.265L258.569,992.265L258.569,1087.66L275.341,992.541L280.647,993.477L263.867,1088.64L296.833,998.069L301.896,999.912L269.7,1088.37L316.998,1006.45L321.665,1009.14L275.473,1089.15L335.224,1017.94L339.352,1021.4L259.959,1116.02L259.088,1117.53L258.569,1118.95L258.569,1119.91L253.986,1119.91L253.506,1120.09L253.442,1119.91L253.181,1119.91L253.181,1119.68L253.175,1119.68L253.175,1119.18L252.656,1117.75L251.785,1116.24L172.392,1021.63L176.52,1018.16L236.271,1089.37L190.08,1009.37L194.746,1006.67L242.044,1088.59L209.848,1000.14L214.911,998.295L247.877,1088.87L231.097,993.702L236.403,992.767L253.175,1087.88Z" style="fill:rgb(246,141,76);"/>
                                    </g>
                                    <path d="M216.558,1124.63C227.935,1116.45 242.831,1111.49 259.128,1111.49C273.356,1111.49 286.517,1115.27 297.199,1121.67L255.875,1182.54L216.558,1124.63Z" style="fill:rgb(246,141,76);"/>
                                </g>
                            </g>
                        </g>
                    </g>
                </g>
            </g>
        </g>
        <g transform="matrix(0.225171,0,0,0.216013,128.49,859.819)">
            <g>
                <g transform="matrix(1,0,0,1,359.022,186.164)">
                    <path d="M397.676,675.604C397.676,636.516 367.232,604.781 329.734,604.781L193.849,604.781C156.35,604.781 125.906,636.516 125.906,675.604L125.906,1039.46C125.906,1078.55 156.35,1110.29 193.849,1110.29L329.734,1110.29C367.232,1110.29 397.676,1078.55 397.676,1039.46L397.676,675.604Z" style="fill:rgb(246,141,76);"/>
                </g>
                <g transform="matrix(1,0,0,1,-2.82672,-0.0724871)">
                    <rect x="529.041" y="866.315" width="189.197" height="119.646"/>
                </g>
                <g transform="matrix(0.843089,0,0,1,389.414,168.848)">
                    <rect x="74.899" y="1061.68" width="399.133" height="65.92" style="fill:rgb(145,146,148);"/>
                </g>
                <g transform="matrix(0.896748,0,0,0.5,373.426,732.648)">
                    <rect x="74.899" y="1061.68" width="399.133" height="65.92" style="fill:rgb(145,146,148);"/>
                </g>
            </g>
            <g>
                <g transform="matrix(0.618436,0,0,0.912687,231.615,-102.508)">
                    <path d="M798.513,1036.22C800.989,1036.13 803.478,1036.08 805.978,1036.08C902.786,1036.08 981.382,1109.31 981.382,1199.51C981.382,1289.7 902.786,1362.93 805.978,1362.93C754.891,1362.93 708.876,1342.54 676.807,1310.02L692.414,1310.02C721.92,1336.35 761.937,1352.54 805.978,1352.54C896.629,1352.54 970.225,1283.97 970.225,1199.51C970.225,1115.04 896.629,1046.47 805.978,1046.47C803.477,1046.47 800.988,1046.52 798.513,1046.63L798.513,1036.22Z"/>
                </g>
                <rect x="650.177" y="1082" width="10.845" height="12.752"/>
                <rect x="701.053" y="843.106" width="25.546" height="14.886"/>
                <g transform="matrix(1,0,0,0.634977,0,305.847)">
                    <rect x="713.826" y="836.176" width="12.773" height="33.374"/>
                </g>
                <g transform="matrix(2.25893,0,0,0.317489,-925.854,579.775)">
                    <rect x="713.826" y="836.176" width="12.773" height="33.374"/>
                </g>
            </g>
            <g transform="matrix(-0.181443,0.000504612,-0.000504612,-0.181443,667.989,1020.94)">
                <g transform="matrix(-0.999996,-0.00278109,0.00278109,-0.999996,518.72,2128.47)">
                    <ellipse cx="264.637" cy="1051.51" rx="137.016" ry="141.488" style="fill:white;"/>
                </g>
                <g transform="matrix(1.05844,0,0,1.05844,-14.9565,-69.1062)">
                    <path d="M153.771,1032.16C183.315,1010.91 221.999,998.029 264.318,998.029C301.266,998.029 335.442,1007.85 363.184,1024.48L255.872,1182.54L153.771,1032.16Z" style="fill:rgb(246,141,76);"/>
                </g>
                <path d="M153.771,1032.16C183.315,1010.91 221.999,998.029 264.318,998.029C301.266,998.029 335.442,1007.85 363.184,1024.48L255.872,1182.54L153.771,1032.16Z" style="fill:rgb(255,242,115);"/>
                <g transform="matrix(1,0,0,1,1.00654,20.164)">
                    <path d="M253.175,1087.88L253.175,992.039L258.564,992.039L258.564,992.265L258.569,992.265L258.569,1087.66L275.341,992.541L280.647,993.477L263.867,1088.64L296.833,998.069L301.896,999.912L269.7,1088.37L316.998,1006.45L321.665,1009.14L275.473,1089.15L335.224,1017.94L339.352,1021.4L259.959,1116.02L259.088,1117.53L258.569,1118.95L258.569,1119.91L253.986,1119.91L253.506,1120.09L253.442,1119.91L253.181,1119.91L253.181,1119.68L253.175,1119.68L253.175,1119.18L252.656,1117.75L251.785,1116.24L172.392,1021.63L176.52,1018.16L236.271,1089.37L190.08,1009.37L194.746,1006.67L242.044,1088.59L209.848,1000.14L214.911,998.295L247.877,1088.87L231.097,993.702L236.403,992.767L253.175,1087.88Z" style="fill:rgb(246,141,76);"/>
                </g>
                <path d="M216.558,1124.63C227.935,1116.45 242.831,1111.49 259.128,1111.49C273.356,1111.49 286.517,1115.27 297.199,1121.67L255.875,1182.54L216.558,1124.63Z" style="fill:rgb(246,141,76);"/>
            </g>
            <g>
                <g transform="matrix(1.32047,0,0,1.60204,-173.84,-668.089)">
                    <path d="M540.222,1117.42L562.822,1154.81L517.622,1154.81L540.222,1117.42Z" style="fill:rgb(241,97,69);"/>
                </g>
                <g transform="matrix(1,0,0,1,1.89486,4.08193)">
                    <path d="M536.235,1163.21L534.892,1144.24L534.892,1136.3L540.337,1136.3L540.337,1144.24L539.067,1163.21L536.235,1163.21ZM535.088,1172.09L535.088,1167.09L540.142,1167.09L540.142,1172.09L535.088,1172.09Z" style="fill-rule:nonzero;"/>
                </g>
            </g>
        </g>
        <g transform="matrix(0.218617,0,0,0.209725,2.28613,868.39)">
            <path d="M1042.54,1296.45L935.554,1296.45L911.763,1111.04L1066.33,1111.04L1042.54,1296.45Z" style="fill:rgb(212,85,60);"/>
            <g transform="matrix(1,0,0,1.3176,-0.358966,-348.963)">
                <rect x="908.389" y="1105.37" width="162.033" height="3.457" style="fill:rgb(241,97,69);"/>
            </g>
            <g transform="matrix(-0.13317,0.000370358,-0.000370358,-0.13317,1023.67,1286.11)">
                <g transform="matrix(-0.999996,-0.00278109,0.00278109,-0.999996,518.72,2128.47)">
                    <ellipse cx="264.637" cy="1051.51" rx="137.016" ry="141.488" style="fill:white;"/>
                </g>
                <g transform="matrix(1.05844,0,0,1.05844,-14.9565,-69.1062)">
                    <path d="M153.771,1032.16C183.315,1010.91 221.999,998.029 264.318,998.029C301.266,998.029 335.442,1007.85 363.184,1024.48L255.872,1182.54L153.771,1032.16Z" style="fill:rgb(246,141,76);"/>
                </g>
                <path d="M153.771,1032.16C183.315,1010.91 221.999,998.029 264.318,998.029C301.266,998.029 335.442,1007.85 363.184,1024.48L255.872,1182.54L153.771,1032.16Z" style="fill:rgb(255,242,115);"/>
                <g transform="matrix(1,0,0,1,1.00654,20.164)">
                    <path d="M253.175,1087.88L253.175,992.039L258.564,992.039L258.564,992.265L258.569,992.265L258.569,1087.66L275.341,992.541L280.647,993.477L263.867,1088.64L296.833,998.069L301.896,999.912L269.7,1088.37L316.998,1006.45L321.665,1009.14L275.473,1089.15L335.224,1017.94L339.352,1021.4L259.959,1116.02L259.088,1117.53L258.569,1118.95L258.569,1119.91L253.986,1119.91L253.506,1120.09L253.442,1119.91L253.181,1119.91L253.181,1119.68L253.175,1119.68L253.175,1119.18L252.656,1117.75L251.785,1116.24L172.392,1021.63L176.52,1018.16L236.271,1089.37L190.08,1009.37L194.746,1006.67L242.044,1088.59L209.848,1000.14L214.911,998.295L247.877,1088.87L231.097,993.702L236.403,992.767L253.175,1087.88Z" style="fill:rgb(246,141,76);"/>
                </g>
                <path d="M216.558,1124.63C227.935,1116.45 242.831,1111.49 259.128,1111.49C273.356,1111.49 286.517,1115.27 297.199,1121.67L255.875,1182.54L216.558,1124.63Z" style="fill:rgb(246,141,76);"/>
            </g>
        </g>
        <g transform="matrix(0.336191,0,0,0.322518,90.4626,722.283)">
            <g>
                <g>
                    <g transform="matrix(0.368194,-0.307759,0.226647,0.271153,-39.0516,602.153)">
                        <rect x="111.278" y="556.256" width="32.74" height="740.192" style="fill:rgb(110,111,113);"/>
                    </g>
                    <rect x="111.278" y="556.256" width="32.74" height="740.192" style="fill:rgb(145,146,148);"/>
                    <g transform="matrix(1,0,0,1,180.718,0)">
                        <rect x="111.278" y="556.256" width="32.74" height="740.192" style="fill:rgb(145,146,148);"/>
                    </g>
                </g>
                <g>
                    <g transform="matrix(1,0,0,1,15.3189,2.77062)">
                        <rect x="64.121" y="218.547" width="276.925" height="398.872" style="fill:rgb(246,141,76);"/>
                    </g>
                    <g transform="matrix(0.838267,0,0,1,63.4124,0.0123702)">
                        <rect x="111.278" y="241.396" width="213.458" height="356.5"/>
                    </g>
                    <g transform="matrix(0.452506,0,0,0.452506,42.3454,194.421)">
                        <text x="93.471px" y="283.726px" style="font-family:'LucidaGrande', 'Lucida Grande', sans-serif;font-weight:500;font-size:50px;fill:rgb(235,235,235);">Diesel</text>
                    </g>
                    <g transform="matrix(0.452506,0,0,0.452506,45.052,298.563)">
                        <text x="93.471px" y="283.726px" style="font-family:'LucidaGrande', 'Lucida Grande', sans-serif;font-weight:500;font-size:50px;fill:rgb(235,235,235);">Super</text>
                    </g>
                    <g transform="matrix(0.452506,0,0,0.452506,68.2849,406.41)">
                        <text x="93.471px" y="283.726px" style="font-family:'LucidaGrande', 'Lucida Grande', sans-serif;font-weight:500;font-size:50px;fill:rgb(235,235,235);">Gas</text>
                    </g>
                    <g transform="matrix(0.906989,0,0,1,20.372,6.21698)">
                        <rect x="79.44" y="320.842" width="276.925" height="15.255" style="fill:rgb(246,141,76);"/>
                    </g>
                    <g transform="matrix(0.906989,0,0,1,14.9323,113.942)">
                        <rect x="79.44" y="320.842" width="276.925" height="15.255" style="fill:rgb(246,141,76);"/>
                    </g>
                    <g>
                        <g transform="matrix(0.906989,0,0,4.93828,14.9323,-1045.88)">
                            <rect x="79.44" y="320.842" width="276.925" height="15.255" style="fill:rgb(246,141,76);"/>
                        </g>
                        <g transform="matrix(-0.260846,0.000725438,-0.000725438,-0.260846,285.723,859.491)">
                            <g transform="matrix(-0.999996,-0.00278109,0.00278109,-0.999996,518.72,2128.47)">
                                <ellipse cx="264.637" cy="1051.51" rx="137.016" ry="141.488" style="fill:white;"/>
                            </g>
                            <g transform="matrix(1.05844,0,0,1.05844,-14.9565,-69.1062)">
                                <path d="M153.771,1032.16C183.315,1010.91 221.999,998.029 264.318,998.029C301.266,998.029 335.442,1007.85 363.184,1024.48L255.872,1182.54L153.771,1032.16Z" style="fill:rgb(246,141,76);"/>
                            </g>
                            <path d="M153.771,1032.16C183.315,1010.91 221.999,998.029 264.318,998.029C301.266,998.029 335.442,1007.85 363.184,1024.48L255.872,1182.54L153.771,1032.16Z" style="fill:rgb(255,242,115);"/>
                            <g transform="matrix(1,0,0,1,1.00654,20.164)">
                                <path d="M253.175,1087.88L253.175,992.039L258.564,992.039L258.564,992.265L258.569,992.265L258.569,1087.66L275.341,992.541L280.647,993.477L263.867,1088.64L296.833,998.069L301.896,999.912L269.7,1088.37L316.998,1006.45L321.665,1009.14L275.473,1089.15L335.224,1017.94L339.352,1021.4L259.959,1116.02L259.088,1117.53L258.569,1118.95L258.569,1119.91L253.986,1119.91L253.506,1120.09L253.442,1119.91L253.181,1119.91L253.181,1119.68L253.175,1119.68L253.175,1119.18L252.656,1117.75L251.785,1116.24L172.392,1021.63L176.52,1018.16L236.271,1089.37L190.08,1009.37L194.746,1006.67L242.044,1088.59L209.848,1000.14L214.911,998.295L247.877,1088.87L231.097,993.702L236.403,992.767L253.175,1087.88Z" style="fill:rgb(246,141,76);"/>
                            </g>
                            <path d="M216.558,1124.63C227.935,1116.45 242.831,1111.49 259.128,1111.49C273.356,1111.49 286.517,1115.27 297.199,1121.67L255.875,1182.54L216.558,1124.63Z" style="fill:rgb(246,141,76);"/>
                        </g>
                    </g>
                </g>
                <g transform="matrix(0.92854,0,0,0.92854,43.5162,37.5826)">
                    <g transform="matrix(1.39488,0,0,1.39488,-33.0835,115.73)">
                        <g transform="matrix(1,0,0,1,-0.536112,0.278755)">
                            <path d="M119.33,254.863L121.024,250.868L121.032,250.868L122.726,254.863L122.726,266.994L121.078,270.881L120.979,270.881L119.33,266.994L119.33,254.863Z" style="fill:rgb(246,141,76);"/>
                        </g>
                        <g transform="matrix(1,0,0,1,-0.536112,21.9901)">
                            <path d="M119.33,254.863L121.024,250.868L121.032,250.868L122.726,254.863L122.726,266.994L121.078,270.881L120.979,270.881L119.33,266.994L119.33,254.863Z" style="fill:rgb(246,141,76);"/>
                        </g>
                        <g transform="matrix(1,0,0,1,27.5867,0.278755)">
                            <path d="M119.33,254.863L121.024,250.868L121.032,250.868L122.726,254.863L122.726,266.994L121.078,270.881L120.979,270.881L119.33,266.994L119.33,254.863Z" style="fill:rgb(61,22,0);"/>
                        </g>
                        <g transform="matrix(1,0,0,1,27.5971,21.9901)">
                            <path d="M119.33,254.863L121.024,250.868L121.032,250.868L122.726,254.863L122.726,266.994L121.078,270.881L120.979,270.881L119.33,266.994L119.33,254.863Z" style="fill:rgb(61,22,0);"/>
                        </g>
                        <g transform="matrix(6.07153e-17,1,-1,6.07153e-17,395.812,130.118)">
                            <path d="M119.33,254.863L121.024,250.868L121.032,250.868L122.726,254.863L122.726,266.994L121.078,270.881L120.979,270.881L119.33,266.994L119.33,254.863Z" style="fill:rgb(246,141,76);"/>
                        </g>
                        <g transform="matrix(6.07153e-17,1,-1,6.07153e-17,395.064,150.132)">
                            <path d="M119.33,254.863L121.024,250.868L121.032,250.868L122.726,254.863L122.726,266.994L121.078,270.881L120.979,270.881L119.33,266.994L119.33,254.863Z" style="fill:rgb(246,141,76);"/>
                        </g>
                        <g transform="matrix(6.07153e-17,1,-1,6.07153e-17,395.064,171.843)">
                            <path d="M119.33,254.863L121.024,250.868L121.032,250.868L122.726,254.863L122.726,266.994L121.078,270.881L120.979,270.881L119.33,266.994L119.33,254.863Z" style="fill:rgb(246,141,76);"/>
                        </g>
                    </g>
                    <g transform="matrix(1,0,0,1,2.07346,206.575)">
                        <path d="M245.775,313.535L249.498,317.676L245.775,321.816L242.053,317.676L245.775,313.535Z" style="fill:rgb(246,141,76);"/>
                    </g>
                    <g transform="matrix(1.39488,0,0,1.39488,23.9574,115.73)">
                        <g transform="matrix(1,0,0,1,-0.536112,0.278755)">
                            <path d="M119.33,254.863L121.024,250.868L121.032,250.868L122.726,254.863L122.726,266.994L121.078,270.881L120.979,270.881L119.33,266.994L119.33,254.863Z" style="fill:rgb(246,141,76);"/>
                        </g>
                        <g transform="matrix(1,0,0,1,-0.536112,21.9901)">
                            <path d="M119.33,254.863L121.024,250.868L121.032,250.868L122.726,254.863L122.726,266.994L121.078,270.881L120.979,270.881L119.33,266.994L119.33,254.863Z" style="fill:rgb(246,141,76);"/>
                        </g>
                        <g transform="matrix(1,0,0,1,27.5867,0.278755)">
                            <path d="M119.33,254.863L121.024,250.868L121.032,250.868L122.726,254.863L122.726,266.994L121.078,270.881L120.979,270.881L119.33,266.994L119.33,254.863Z" style="fill:rgb(61,22,0);"/>
                        </g>
                        <g transform="matrix(1,0,0,1,27.5971,21.9901)">
                            <path d="M119.33,254.863L121.024,250.868L121.032,250.868L122.726,254.863L122.726,266.994L121.078,270.881L120.979,270.881L119.33,266.994L119.33,254.863Z" style="fill:rgb(61,22,0);"/>
                        </g>
                        <g transform="matrix(6.07153e-17,1,-1,6.07153e-17,395.812,130.118)">
                            <path d="M119.33,254.863L121.024,250.868L121.032,250.868L122.726,254.863L122.726,266.994L121.078,270.881L120.979,270.881L119.33,266.994L119.33,254.863Z" style="fill:rgb(61,22,0);"/>
                        </g>
                        <g transform="matrix(6.07153e-17,1,-1,6.07153e-17,395.064,150.132)">
                            <path d="M119.33,254.863L121.024,250.868L121.032,250.868L122.726,254.863L122.726,266.994L121.078,270.881L120.979,270.881L119.33,266.994L119.33,254.863Z" style="fill:rgb(61,22,0);"/>
                        </g>
                        <g transform="matrix(6.07153e-17,1,-1,6.07153e-17,395.064,171.843)">
                            <path d="M119.33,254.863L121.024,250.868L121.032,250.868L122.726,254.863L122.726,266.994L121.078,270.881L120.979,270.881L119.33,266.994L119.33,254.863Z" style="fill:rgb(246,141,76);"/>
                        </g>
                    </g>
                    <g transform="matrix(1.39488,0,0,1.39488,94.0868,115.73)">
                        <g transform="matrix(1,0,0,1,-0.536112,0.278755)">
                            <path d="M119.33,254.863L121.024,250.868L121.032,250.868L122.726,254.863L122.726,266.994L121.078,270.881L120.979,270.881L119.33,266.994L119.33,254.863Z" style="fill:rgb(61,22,0);"/>
                        </g>
                        <g transform="matrix(1,0,0,1,-0.536112,21.9901)">
                            <path d="M119.33,254.863L121.024,250.868L121.032,250.868L122.726,254.863L122.726,266.994L121.078,270.881L120.979,270.881L119.33,266.994L119.33,254.863Z" style="fill:rgb(61,22,0);"/>
                        </g>
                        <g transform="matrix(1,0,0,1,27.5867,0.278755)">
                            <path d="M119.33,254.863L121.024,250.868L121.032,250.868L122.726,254.863L122.726,266.994L121.078,270.881L120.979,270.881L119.33,266.994L119.33,254.863Z" style="fill:rgb(61,22,0);"/>
                        </g>
                        <g transform="matrix(1,0,0,1,27.5971,21.9901)">
                            <path d="M119.33,254.863L121.024,250.868L121.032,250.868L122.726,254.863L122.726,266.994L121.078,270.881L120.979,270.881L119.33,266.994L119.33,254.863Z" style="fill:rgb(61,22,0);"/>
                        </g>
                        <g transform="matrix(6.07153e-17,1,-1,6.07153e-17,395.812,130.118)">
                            <path d="M119.33,254.863L121.024,250.868L121.032,250.868L122.726,254.863L122.726,266.994L121.078,270.881L120.979,270.881L119.33,266.994L119.33,254.863Z" style="fill:rgb(61,22,0);"/>
                        </g>
                        <g transform="matrix(6.07153e-17,1,-1,6.07153e-17,395.064,150.132)">
                            <path d="M119.33,254.863L121.024,250.868L121.032,250.868L122.726,254.863L122.726,266.994L121.078,270.881L120.979,270.881L119.33,266.994L119.33,254.863Z" style="fill:rgb(61,22,0);"/>
                        </g>
                        <g transform="matrix(6.07153e-17,1,-1,6.07153e-17,395.064,171.843)">
                            <path d="M119.33,254.863L121.024,250.868L121.032,250.868L122.726,254.863L122.726,266.994L121.078,270.881L120.979,270.881L119.33,266.994L119.33,254.863Z" style="fill:rgb(61,22,0);"/>
                        </g>
                    </g>
                </g>
                <g transform="matrix(0.92854,0,0,0.92854,43.5162,25.5555)">
                    <g transform="matrix(1.39488,0,0,1.39488,-33.0835,12.9515)">
                        <g transform="matrix(1,0,0,1,-0.536112,0.278755)">
                            <path d="M119.33,254.863L121.024,250.868L121.032,250.868L122.726,254.863L122.726,266.994L121.078,270.881L120.979,270.881L119.33,266.994L119.33,254.863Z" style="fill:rgb(246,141,76);"/>
                        </g>
                        <g transform="matrix(1,0,0,1,-0.536112,21.9901)">
                            <path d="M119.33,254.863L121.024,250.868L121.032,250.868L122.726,254.863L122.726,266.994L121.078,270.881L120.979,270.881L119.33,266.994L119.33,254.863Z" style="fill:rgb(61,22,0);"/>
                        </g>
                        <g transform="matrix(1,0,0,1,27.5867,0.278755)">
                            <path d="M119.33,254.863L121.024,250.868L121.032,250.868L122.726,254.863L122.726,266.994L121.078,270.881L120.979,270.881L119.33,266.994L119.33,254.863Z" style="fill:rgb(61,22,0);"/>
                        </g>
                        <g transform="matrix(1,0,0,1,27.5971,21.9901)">
                            <path d="M119.33,254.863L121.024,250.868L121.032,250.868L122.726,254.863L122.726,266.994L121.078,270.881L120.979,270.881L119.33,266.994L119.33,254.863Z" style="fill:rgb(246,141,76);"/>
                        </g>
                        <g transform="matrix(6.07153e-17,1,-1,6.07153e-17,395.812,130.118)">
                            <path d="M119.33,254.863L121.024,250.868L121.032,250.868L122.726,254.863L122.726,266.994L121.078,270.881L120.979,270.881L119.33,266.994L119.33,254.863Z" style="fill:rgb(246,141,76);"/>
                        </g>
                        <g transform="matrix(6.07153e-17,1,-1,6.07153e-17,395.064,150.132)">
                            <path d="M119.33,254.863L121.024,250.868L121.032,250.868L122.726,254.863L122.726,266.994L121.078,270.881L120.979,270.881L119.33,266.994L119.33,254.863Z" style="fill:rgb(246,141,76);"/>
                        </g>
                        <g transform="matrix(6.07153e-17,1,-1,6.07153e-17,395.064,171.843)">
                            <path d="M119.33,254.863L121.024,250.868L121.032,250.868L122.726,254.863L122.726,266.994L121.078,270.881L120.979,270.881L119.33,266.994L119.33,254.863Z" style="fill:rgb(246,141,76);"/>
                        </g>
                    </g>
                    <g transform="matrix(1,0,0,1,2.07346,103.796)">
                        <path d="M245.775,313.535L249.498,317.676L245.775,321.816L242.053,317.676L245.775,313.535Z" style="fill:rgb(246,141,76);"/>
                    </g>
                    <g transform="matrix(1.39488,0,0,1.39488,94.0868,12.9515)">
                        <g transform="matrix(1,0,0,1,-0.536112,0.278755)">
                            <path d="M119.33,254.863L121.024,250.868L121.032,250.868L122.726,254.863L122.726,266.994L121.078,270.881L120.979,270.881L119.33,266.994L119.33,254.863Z" style="fill:rgb(246,141,76);"/>
                        </g>
                        <g transform="matrix(1,0,0,1,-0.536112,21.9901)">
                            <path d="M119.33,254.863L121.024,250.868L121.032,250.868L122.726,254.863L122.726,266.994L121.078,270.881L120.979,270.881L119.33,266.994L119.33,254.863Z" style="fill:rgb(246,141,76);"/>
                        </g>
                        <g transform="matrix(1,0,0,1,27.5867,0.278755)">
                            <path d="M119.33,254.863L121.024,250.868L121.032,250.868L122.726,254.863L122.726,266.994L121.078,270.881L120.979,270.881L119.33,266.994L119.33,254.863Z" style="fill:rgb(61,22,0);"/>
                        </g>
                        <g transform="matrix(1,0,0,1,27.5971,21.9901)">
                            <path d="M119.33,254.863L121.024,250.868L121.032,250.868L122.726,254.863L122.726,266.994L121.078,270.881L120.979,270.881L119.33,266.994L119.33,254.863Z" style="fill:rgb(61,22,0);"/>
                        </g>
                        <g transform="matrix(6.07153e-17,1,-1,6.07153e-17,395.812,130.118)">
                            <path d="M119.33,254.863L121.024,250.868L121.032,250.868L122.726,254.863L122.726,266.994L121.078,270.881L120.979,270.881L119.33,266.994L119.33,254.863Z" style="fill:rgb(61,22,0);"/>
                        </g>
                        <g transform="matrix(6.07153e-17,1,-1,6.07153e-17,395.064,150.132)">
                            <path d="M119.33,254.863L121.024,250.868L121.032,250.868L122.726,254.863L122.726,266.994L121.078,270.881L120.979,270.881L119.33,266.994L119.33,254.863Z" style="fill:rgb(61,22,0);"/>
                        </g>
                        <g transform="matrix(6.07153e-17,1,-1,6.07153e-17,395.064,171.843)">
                            <path d="M119.33,254.863L121.024,250.868L121.032,250.868L122.726,254.863L122.726,266.994L121.078,270.881L120.979,270.881L119.33,266.994L119.33,254.863Z" style="fill:rgb(61,22,0);"/>
                        </g>
                    </g>
                    <g transform="matrix(1.39488,0,0,1.39488,23.9574,12.9515)">
                        <g transform="matrix(1,0,0,1,-0.536112,0.278755)">
                            <path d="M119.33,254.863L121.024,250.868L121.032,250.868L122.726,254.863L122.726,266.994L121.078,270.881L120.979,270.881L119.33,266.994L119.33,254.863Z" style="fill:rgb(246,141,76);"/>
                        </g>
                        <g transform="matrix(1,0,0,1,-0.536112,21.9901)">
                            <path d="M119.33,254.863L121.024,250.868L121.032,250.868L122.726,254.863L122.726,266.994L121.078,270.881L120.979,270.881L119.33,266.994L119.33,254.863Z" style="fill:rgb(246,141,76);"/>
                        </g>
                        <g transform="matrix(1,0,0,1,27.5867,0.278755)">
                            <path d="M119.33,254.863L121.024,250.868L121.032,250.868L122.726,254.863L122.726,266.994L121.078,270.881L120.979,270.881L119.33,266.994L119.33,254.863Z" style="fill:rgb(246,141,76);"/>
                        </g>
                        <g transform="matrix(1,0,0,1,27.5971,21.9901)">
                            <path d="M119.33,254.863L121.024,250.868L121.032,250.868L122.726,254.863L122.726,266.994L121.078,270.881L120.979,270.881L119.33,266.994L119.33,254.863Z" style="fill:rgb(61,22,0);"/>
                        </g>
                        <g transform="matrix(6.07153e-17,1,-1,6.07153e-17,395.812,130.118)">
                            <path d="M119.33,254.863L121.024,250.868L121.032,250.868L122.726,254.863L122.726,266.994L121.078,270.881L120.979,270.881L119.33,266.994L119.33,254.863Z" style="fill:rgb(246,141,76);"/>
                        </g>
                        <g transform="matrix(6.07153e-17,1,-1,6.07153e-17,395.064,150.132)">
                            <path d="M119.33,254.863L121.024,250.868L121.032,250.868L122.726,254.863L122.726,266.994L121.078,270.881L120.979,270.881L119.33,266.994L119.33,254.863Z" style="fill:rgb(246,141,76);"/>
                        </g>
                        <g transform="matrix(6.07153e-17,1,-1,6.07153e-17,395.064,171.843)">
                            <path d="M119.33,254.863L121.024,250.868L121.032,250.868L122.726,254.863L122.726,266.994L121.078,270.881L120.979,270.881L119.33,266.994L119.33,254.863Z" style="fill:rgb(61,22,0);"/>
                        </g>
                    </g>
                </g>
                <g transform="matrix(0.932254,0,0,0.932254,43.9855,22.0962)">
                    <g transform="matrix(1.39488,0,0,1.39488,-34.1154,-94.9854)">
                        <g transform="matrix(1,0,0,1,-0.536112,0.278755)">
                            <path d="M119.33,254.863L121.024,250.868L121.032,250.868L122.726,254.863L122.726,266.994L121.078,270.881L120.979,270.881L119.33,266.994L119.33,254.863Z" style="fill:rgb(246,141,76);"/>
                        </g>
                        <g transform="matrix(1,0,0,1,-0.536112,21.9901)">
                            <path d="M119.33,254.863L121.024,250.868L121.032,250.868L122.726,254.863L122.726,266.994L121.078,270.881L120.979,270.881L119.33,266.994L119.33,254.863Z" style="fill:rgb(246,141,76);"/>
                        </g>
                        <g transform="matrix(1,0,0,1,27.5867,0.278755)">
                            <path d="M119.33,254.863L121.024,250.868L121.032,250.868L122.726,254.863L122.726,266.994L121.078,270.881L120.979,270.881L119.33,266.994L119.33,254.863Z" style="fill:rgb(246,141,76);"/>
                        </g>
                        <g transform="matrix(1,0,0,1,27.5971,21.9901)">
                            <path d="M119.33,254.863L121.024,250.868L121.032,250.868L122.726,254.863L122.726,266.994L121.078,270.881L120.979,270.881L119.33,266.994L119.33,254.863Z" style="fill:rgb(246,141,76);"/>
                        </g>
                        <g transform="matrix(6.07153e-17,1,-1,6.07153e-17,395.812,130.118)">
                            <path d="M119.33,254.863L121.024,250.868L121.032,250.868L122.726,254.863L122.726,266.994L121.078,270.881L120.979,270.881L119.33,266.994L119.33,254.863Z" style="fill:rgb(246,141,76);"/>
                        </g>
                        <g transform="matrix(6.07153e-17,1,-1,6.07153e-17,395.064,150.132)">
                            <path d="M119.33,254.863L121.024,250.868L121.032,250.868L122.726,254.863L122.726,266.994L121.078,270.881L120.979,270.881L119.33,266.994L119.33,254.863Z" style="fill:rgb(61,22,0);"/>
                        </g>
                        <g transform="matrix(6.07153e-17,1,-1,6.07153e-17,395.064,171.843)">
                            <path d="M119.33,254.863L121.024,250.868L121.032,250.868L122.726,254.863L122.726,266.994L121.078,270.881L120.979,270.881L119.33,266.994L119.33,254.863Z" style="fill:rgb(246,141,76);"/>
                        </g>
                    </g>
                    <g transform="matrix(1,0,0,1,1.04157,-4.14051)">
                        <path d="M245.775,313.535L249.498,317.676L245.775,321.816L242.053,317.676L245.775,313.535Z" style="fill:rgb(246,141,76);"/>
                    </g>
                    <g transform="matrix(1.39488,0,0,1.39488,22.9255,-94.9854)">
                        <g transform="matrix(1,0,0,1,-0.536112,0.278755)">
                            <path d="M119.33,254.863L121.024,250.868L121.032,250.868L122.726,254.863L122.726,266.994L121.078,270.881L120.979,270.881L119.33,266.994L119.33,254.863Z" style="fill:rgb(246,141,76);"/>
                        </g>
                        <g transform="matrix(1,0,0,1,-0.536112,21.9901)">
                            <path d="M119.33,254.863L121.024,250.868L121.032,250.868L122.726,254.863L122.726,266.994L121.078,270.881L120.979,270.881L119.33,266.994L119.33,254.863Z" style="fill:rgb(246,141,76);"/>
                        </g>
                        <g transform="matrix(1,0,0,1,27.5867,0.278755)">
                            <path d="M119.33,254.863L121.024,250.868L121.032,250.868L122.726,254.863L122.726,266.994L121.078,270.881L120.979,270.881L119.33,266.994L119.33,254.863Z" style="fill:rgb(246,141,76);"/>
                        </g>
                        <g transform="matrix(1,0,0,1,27.5971,21.9901)">
                            <path d="M119.33,254.863L121.024,250.868L121.032,250.868L122.726,254.863L122.726,266.994L121.078,270.881L120.979,270.881L119.33,266.994L119.33,254.863Z" style="fill:rgb(246,141,76);"/>
                        </g>
                        <g transform="matrix(6.07153e-17,1,-1,6.07153e-17,395.812,130.118)">
                            <path d="M119.33,254.863L121.024,250.868L121.032,250.868L122.726,254.863L122.726,266.994L121.078,270.881L120.979,270.881L119.33,266.994L119.33,254.863Z" style="fill:rgb(246,141,76);"/>
                        </g>
                        <g transform="matrix(6.07153e-17,1,-1,6.07153e-17,395.064,150.132)">
                            <path d="M119.33,254.863L121.024,250.868L121.032,250.868L122.726,254.863L122.726,266.994L121.078,270.881L120.979,270.881L119.33,266.994L119.33,254.863Z" style="fill:rgb(246,141,76);"/>
                        </g>
                        <g transform="matrix(6.07153e-17,1,-1,6.07153e-17,395.064,171.843)">
                            <path d="M119.33,254.863L121.024,250.868L121.032,250.868L122.726,254.863L122.726,266.994L121.078,270.881L120.979,270.881L119.33,266.994L119.33,254.863Z" style="fill:rgb(61,22,0);"/>
                        </g>
                    </g>
                    <g transform="matrix(1.39488,0,0,1.39488,93.055,-94.9854)">
                        <g transform="matrix(1,0,0,1,-0.536112,0.278755)">
                            <path d="M119.33,254.863L121.024,250.868L121.032,250.868L122.726,254.863L122.726,266.994L121.078,270.881L120.979,270.881L119.33,266.994L119.33,254.863Z" style="fill:rgb(246,141,76);"/>
                        </g>
                        <g transform="matrix(1,0,0,1,-0.536112,21.9901)">
                            <path d="M119.33,254.863L121.024,250.868L121.032,250.868L122.726,254.863L122.726,266.994L121.078,270.881L120.979,270.881L119.33,266.994L119.33,254.863Z" style="fill:rgb(61,22,0);"/>
                        </g>
                        <g transform="matrix(1,0,0,1,27.5867,0.278755)">
                            <path d="M119.33,254.863L121.024,250.868L121.032,250.868L122.726,254.863L122.726,266.994L121.078,270.881L120.979,270.881L119.33,266.994L119.33,254.863Z" style="fill:rgb(61,22,0);"/>
                        </g>
                        <g transform="matrix(1,0,0,1,27.5971,21.9901)">
                            <path d="M119.33,254.863L121.024,250.868L121.032,250.868L122.726,254.863L122.726,266.994L121.078,270.881L120.979,270.881L119.33,266.994L119.33,254.863Z" style="fill:rgb(246,141,76);"/>
                        </g>
                        <g transform="matrix(6.07153e-17,1,-1,6.07153e-17,395.812,130.118)">
                            <path d="M119.33,254.863L121.024,250.868L121.032,250.868L122.726,254.863L122.726,266.994L121.078,270.881L120.979,270.881L119.33,266.994L119.33,254.863Z" style="fill:rgb(246,141,76);"/>
                        </g>
                        <g transform="matrix(6.07153e-17,1,-1,6.07153e-17,395.064,150.132)">
                            <path d="M119.33,254.863L121.024,250.868L121.032,250.868L122.726,254.863L122.726,266.994L121.078,270.881L120.979,270.881L119.33,266.994L119.33,254.863Z" style="fill:rgb(246,141,76);"/>
                        </g>
                        <g transform="matrix(6.07153e-17,1,-1,6.07153e-17,395.064,171.843)">
                            <path d="M119.33,254.863L121.024,250.868L121.032,250.868L122.726,254.863L122.726,266.994L121.078,270.881L120.979,270.881L119.33,266.994L119.33,254.863Z" style="fill:rgb(246,141,76);"/>
                        </g>
                    </g>
                </g>
            </g>
            <g>
                <g transform="matrix(0.585723,0,0,0.450828,105.586,724.046)">
                    <path d="M370.411,1216.05C377.447,1191.64 390.894,1175.12 406.288,1175.12C407.42,1175.12 408.541,1175.21 409.649,1175.38C394.063,1177.85 380.907,1197.27 375.104,1224.13C385.266,1211.69 400.705,1203.74 417.981,1203.74C419.511,1203.74 421.026,1203.8 422.525,1203.93C401.195,1205.67 383.266,1219.54 375.626,1238.65C376.545,1245.24 377.039,1252.16 377.049,1259.29L377.049,1259.47L377.05,1259.54C377.05,1259.75 377.049,1259.96 377.048,1260.17L377.047,1260.36L377.045,1260.72L377.042,1260.72L367.954,1260.72C367.956,1260.57 367.958,1260.43 367.959,1260.29L362.591,1260.29C362.585,1259.96 362.583,1259.62 362.583,1259.29C362.583,1252.86 363.676,1246.68 365.687,1240.93C359.299,1215.3 340.144,1196.15 317.014,1193.92C318.513,1193.77 320.028,1193.7 321.558,1193.7C338.636,1193.7 353.932,1202.9 364.118,1217.36C357.413,1196.5 345.891,1182.07 332.601,1179.97C333.71,1179.8 334.83,1179.71 335.962,1179.71C350.371,1179.71 363.074,1194.18 370.411,1216.05Z" style="fill:rgb(0,105,65);"/>
                </g>
                <g transform="matrix(-0.510928,0,0,0.678799,300.204,440.626)">
                    <path d="M370.411,1216.05C377.447,1191.64 390.894,1175.12 406.288,1175.12C407.42,1175.12 408.541,1175.21 409.649,1175.38C394.063,1177.85 380.907,1197.27 375.104,1224.13C385.266,1211.69 400.705,1203.74 417.981,1203.74C419.511,1203.74 421.026,1203.8 422.525,1203.93C401.195,1205.67 383.266,1219.54 375.626,1238.65C376.545,1245.24 377.039,1252.16 377.049,1259.29L377.049,1259.47L377.05,1259.54C377.05,1259.75 377.049,1259.96 377.048,1260.17L377.047,1260.36L377.045,1260.72L377.042,1260.72L367.954,1260.72C367.956,1260.57 367.958,1260.43 367.959,1260.29L362.591,1260.29C362.585,1259.96 362.583,1259.62 362.583,1259.29C362.583,1252.86 363.676,1246.68 365.687,1240.93C359.299,1215.3 340.144,1196.15 317.014,1193.92C318.513,1193.77 320.028,1193.7 321.558,1193.7C338.636,1193.7 353.932,1202.9 364.118,1217.36C357.413,1196.5 345.891,1182.07 332.601,1179.97C333.71,1179.8 334.83,1179.71 335.962,1179.71C350.371,1179.71 363.074,1194.18 370.411,1216.05Z" style="fill:rgb(0,105,65);"/>
                </g>
                <g transform="matrix(1,0,0,1,59.3592,0)">
                    <path d="M144.45,1296.45L136.865,1296.45C136.036,1287.14 127.588,1279.82 117.304,1279.82C115.202,1279.82 113.177,1280.12 111.278,1280.69C114.712,1277.96 119.178,1276.32 124.056,1276.32C131.041,1276.32 137.179,1279.69 140.658,1284.78C144.137,1279.69 150.275,1276.32 157.26,1276.32C162.138,1276.32 166.603,1277.96 170.038,1280.69C168.139,1280.12 166.114,1279.82 164.012,1279.82C153.728,1279.82 145.28,1287.14 144.45,1296.45Z" style="fill:rgb(0,105,65);"/>
                </g>
                <path d="M96.051,1297.87C96.741,1294.64 103.543,1292.1 111.82,1292.1C115.074,1292.1 118.1,1292.5 120.617,1293.17C123.398,1291.36 128.412,1290.14 134.129,1290.14C138.531,1290.14 142.516,1290.86 145.386,1292.02C149.29,1290.7 153.957,1289.93 158.969,1289.93C162.797,1289.93 166.423,1290.38 169.663,1291.18C170.889,1290.51 172.24,1290.14 173.659,1290.14C176.329,1290.14 178.759,1291.45 180.572,1293.58C182.582,1292.51 184.91,1291.89 187.392,1291.89C189.259,1291.89 191.04,1292.24 192.664,1292.87C194.996,1291.16 197.934,1290.14 201.124,1290.14C205.045,1290.14 208.585,1291.68 211.088,1294.15C214.791,1292.72 219.279,1291.89 224.112,1291.89C228.221,1291.89 232.08,1292.49 235.419,1293.55C239.529,1290.99 245.05,1289.42 251.117,1289.42C257.613,1289.42 263.483,1291.22 267.665,1294.1C271.141,1292.7 275.22,1291.89 279.582,1291.89C279.714,1291.89 279.846,1291.89 279.977,1291.89C282.912,1290.33 286.372,1289.42 290.076,1289.42C292.727,1289.42 295.253,1289.89 297.551,1290.72C299.015,1289.89 300.624,1289.42 302.313,1289.42C303.991,1289.42 305.591,1289.88 307.048,1290.71C309.16,1288.37 311.863,1286.96 314.807,1286.96C317.179,1286.96 319.394,1287.87 321.27,1289.45C323.566,1288.64 326.083,1288.19 328.723,1288.19C336.579,1288.19 343.353,1292.16 346.417,1297.87L96.051,1297.87Z" style="fill:rgb(0,105,65);"/>
                <g transform="matrix(0.467476,0,0,1.30194,75.8724,-391.492)">
                    <path d="M144.45,1296.45L136.865,1296.45C136.036,1287.14 127.588,1279.82 117.304,1279.82C115.202,1279.82 113.177,1280.12 111.278,1280.69C114.712,1277.96 119.178,1276.32 124.056,1276.32C131.041,1276.32 137.179,1279.69 140.658,1284.78C144.137,1279.69 150.275,1276.32 157.26,1276.32C162.138,1276.32 166.603,1277.96 170.038,1280.69C168.139,1280.12 166.114,1279.82 164.012,1279.82C153.728,1279.82 145.28,1287.14 144.45,1296.45Z" style="fill:rgb(0,105,65);"/>
                </g>
                <g transform="matrix(1,0,0,1,2.13837,-2.35567)">
                    <path d="M234.652,1300.22L225.605,1300.22C224.775,1290.91 216.328,1283.59 206.044,1283.59C203.941,1283.59 201.916,1283.89 200.017,1284.46C203.452,1281.74 207.917,1280.09 212.795,1280.09C215.417,1280.09 217.919,1280.56 220.207,1281.43C215.594,1276.69 209.265,1273.5 202.163,1272.72C203.26,1272.6 204.376,1272.54 205.507,1272.54C216.397,1272.54 225.899,1278.23 230.902,1286.64C234.504,1282.64 239.932,1280.09 245.999,1280.09C250.878,1280.09 255.343,1281.74 258.777,1284.46C256.878,1283.89 254.853,1283.59 252.751,1283.59C244.226,1283.59 236.963,1288.62 234.255,1295.65C234.516,1297.13 234.652,1298.66 234.652,1300.22Z" style="fill:rgb(0,105,65);"/>
                </g>
                <g transform="matrix(1,0,0,1,46.9777,-7.80877)">
                    <path d="M234.652,1300.22L225.605,1300.22C224.775,1290.91 216.328,1283.59 206.044,1283.59C203.941,1283.59 201.916,1283.89 200.017,1284.46C203.452,1281.74 207.917,1280.09 212.795,1280.09C215.417,1280.09 217.919,1280.56 220.207,1281.43C215.594,1276.69 209.265,1273.5 202.163,1272.72C203.26,1272.6 204.376,1272.54 205.507,1272.54C216.397,1272.54 225.899,1278.23 230.902,1286.64C234.504,1282.64 239.932,1280.09 245.999,1280.09C250.878,1280.09 255.343,1281.74 258.777,1284.46C256.878,1283.89 254.853,1283.59 252.751,1283.59C244.226,1283.59 236.963,1288.62 234.255,1295.65C234.516,1297.13 234.652,1298.66 234.652,1300.22Z" style="fill:rgb(0,105,65);"/>
                </g>
                <g transform="matrix(1,0,0,1,-45.5884,-3.77218)">
                    <path d="M234.652,1300.22L225.605,1300.22C224.775,1290.91 216.328,1283.59 206.044,1283.59C203.941,1283.59 201.916,1283.89 200.017,1284.46C203.452,1281.74 207.917,1280.09 212.795,1280.09C215.417,1280.09 217.919,1280.56 220.207,1281.43C215.594,1276.69 209.265,1273.5 202.163,1272.72C203.26,1272.6 204.376,1272.54 205.507,1272.54C216.397,1272.54 225.899,1278.23 230.902,1286.64C234.504,1282.64 239.932,1280.09 245.999,1280.09C250.878,1280.09 255.343,1281.74 258.777,1284.46C256.878,1283.89 254.853,1283.59 252.751,1283.59C244.226,1283.59 236.963,1288.62 234.255,1295.65C234.516,1297.13 234.652,1298.66 234.652,1300.22Z" style="fill:rgb(0,105,65);"/>
                </g>
            </g>
        </g>
    </g>
    <g transform="matrix(1,0,0,1.65783,5.09826,-950.516)">
        <rect x="-56.547" y="1272.32" width="1622.21" height="202.254" style="fill:rgb(235,235,235);"/>
    </g>
    <g transform="matrix(1,0,0,0.183376,5.09826,906.919)">
        <rect x="-56.547" y="1272.32" width="1622.21" height="202.254" style="fill:rgb(193,193,195);"/>
    </g>
    <g transform="matrix(0.147077,0,0,0.141096,520.936,968.83)">
        <g id="Head1" serif:id="Head" transform="matrix(1,0,0,1,-2.75878,3.17177)">
            <g transform="matrix(0.733518,0,0,1.29705,141.348,-202.834)">
                <rect x="601.927" y="668.886" width="48.139" height="22.695" style="fill:rgb(218,162,132);"/>
            </g>
            <g transform="matrix(1,0,0,1,-47.2651,-8.02898)">
                <ellipse cx="647.751" cy="589.699" rx="85.184" ry="88.176" style="fill:rgb(218,162,132);"/>
            </g>
            <g transform="matrix(1,0,0,1,-343.198,6.79365)">
                <path d="M860.788,595.246C859.292,588.706 858.5,581.886 858.5,574.876C858.5,526.211 896.67,486.701 943.684,486.701C990.699,486.701 1028.87,526.211 1028.87,574.876C1028.87,576.705 1028.82,578.522 1028.71,580.323C1023.79,571.271 1016.87,563.178 1008.43,556.467L887.064,556.467C874.209,566.687 864.872,580.109 860.788,595.246Z" style="fill:rgb(43,20,0);"/>
            </g>
        </g>
        <g id="Torso3" serif:id="Torso" transform="matrix(0.727509,0,0,0.891966,142.829,12.7068)">
            <path d="M517.775,829.346C517.775,786.264 566.052,751.288 625.514,751.288C684.977,751.288 733.254,786.265 733.254,829.346L733.254,1064.95C733.254,1108.03 684.977,1143.01 625.514,1143.01C566.051,1143.01 517.775,1108.03 517.775,1064.95L517.775,829.346Z" style="fill:rgb(246,140,76);"/>
        </g>
        <g id="Torso4" serif:id="Torso" transform="matrix(0.748284,0,0,0.748284,97.4943,321.65)">
            <path d="M773.481,634.191L773.481,856.564C773.481,907.918 726.545,949.611 668.733,949.611C610.92,949.611 563.984,907.918 563.984,856.564L563.984,634.191L773.481,634.191Z" style="fill:rgb(48,78,127);"/>
        </g>
        <g transform="matrix(4.73929,0,0,4.73929,-1900.83,-5582.76)">
            <g id="Arm-11" serif:id="Arm 1">
                <path id="arm1_t1" serif:id="arm1_t" d="M494.584,1354.68C493.691,1353.09 493.831,1351.02 495.089,1349.51L513.049,1327.94C514.672,1325.99 517.546,1325.71 519.462,1327.3C521.379,1328.9 521.616,1331.78 519.993,1333.73L503.542,1353.48L507.489,1380.29C507.864,1382.84 506.165,1385.2 503.698,1385.56C501.23,1385.92 498.923,1384.15 498.548,1381.61L494.584,1354.68ZM550.158,1352.46L533.706,1332.7C532.083,1330.76 532.321,1327.88 534.237,1326.28C536.153,1324.68 539.027,1324.97 540.651,1326.92L558.61,1348.48C559.868,1349.99 560.009,1352.06 559.115,1353.66L555.151,1380.59C554.777,1383.13 552.469,1384.9 550.002,1384.54C547.534,1384.17 545.835,1381.81 546.21,1379.27L546.511,1377.22L550.158,1352.46Z" style="fill:rgb(246,140,76);"/>
            </g>
        </g>
        <g transform="matrix(0.748284,0,0,0.748284,95.2494,293.286)">
            <path d="M723.347,688.08L723.347,738.145C723.347,753.066 711.235,765.019 696.316,764.82L641.149,764.085C626.231,763.887 614.118,751.611 614.118,736.689L614.118,688.08L723.347,688.08Z" style="fill:rgb(60,95,152);"/>
        </g>
        <g transform="matrix(0.748284,0,0,0.748284,97.4943,321.65)">
            <path d="M727.339,498.613C755.172,515.345 773.481,543.651 773.481,575.725L773.481,655.939L727.339,655.939L727.339,498.613Z" style="fill:rgb(48,78,127);"/>
        </g>
        <g transform="matrix(0.748284,0,0,0.748284,97.4943,321.65)">
            <path d="M604.472,655.939L563.984,655.939L563.984,575.725C563.985,545.876 579.841,519.292 604.472,502.261L604.472,655.939Z" style="fill:rgb(48,78,127);"/>
        </g>
        <g id="Leg-11" serif:id="Leg 1" transform="matrix(1,0,0,1,-18.1689,-2.33355)">
            <g transform="matrix(-0.0932271,0.000259274,-0.000259274,-0.0932271,701.422,863.088)">
                <g transform="matrix(-0.999996,-0.00278109,0.00278109,-0.999996,518.72,2128.47)">
                    <ellipse cx="264.637" cy="1051.51" rx="137.016" ry="141.488" style="fill:white;"/>
                </g>
                <g transform="matrix(1.05844,0,0,1.05844,-14.9565,-69.1062)">
                    <path d="M153.771,1032.16C183.315,1010.91 221.999,998.029 264.318,998.029C301.266,998.029 335.442,1007.85 363.184,1024.48L255.872,1182.54L153.771,1032.16Z" style="fill:rgb(246,141,76);"/>
                </g>
                <path d="M153.771,1032.16C183.315,1010.91 221.999,998.029 264.318,998.029C301.266,998.029 335.442,1007.85 363.184,1024.48L255.872,1182.54L153.771,1032.16Z" style="fill:rgb(255,242,115);"/>
                <g transform="matrix(1,0,0,1,1.00654,20.164)">
                    <path d="M253.175,1087.88L253.175,992.039L258.564,992.039L258.564,992.265L258.569,992.265L258.569,1087.66L275.341,992.541L280.647,993.477L263.867,1088.64L296.833,998.069L301.896,999.912L269.7,1088.37L316.998,1006.45L321.665,1009.14L275.473,1089.15L335.224,1017.94L339.352,1021.4L259.959,1116.02L259.088,1117.53L258.569,1118.95L258.569,1119.91L253.986,1119.91L253.506,1120.09L253.442,1119.91L253.181,1119.91L253.181,1119.68L253.175,1119.68L253.175,1119.18L252.656,1117.75L251.785,1116.24L172.392,1021.63L176.52,1018.16L236.271,1089.37L190.08,1009.37L194.746,1006.67L242.044,1088.59L209.848,1000.14L214.911,998.295L247.877,1088.87L231.097,993.702L236.403,992.767L253.175,1087.88Z" style="fill:rgb(246,141,76);"/>
                </g>
                <path d="M216.558,1124.63C227.935,1116.45 242.831,1111.49 259.128,1111.49C273.356,1111.49 286.517,1115.27 297.199,1121.67L255.875,1182.54L216.558,1124.63Z" style="fill:rgb(246,141,76);"/>
            </g>
            <g id="leg1_t1" serif:id="leg1_t" transform="matrix(0.999988,-0.0048479,0.00357682,0.737799,14.4829,239.875)">
                <path d="M519.515,1005.69C519.515,987.336 534.824,972.437 553.68,972.437C572.537,972.437 587.846,987.336 587.846,1005.69L587.846,1208.69C587.846,1227.05 572.537,1241.94 553.68,1241.94C534.824,1241.94 519.515,1227.05 519.515,1208.69L519.515,1005.69Z" style="fill:rgb(48,78,128);"/>
            </g>
            <g id="leg1_b1" serif:id="leg1_b" transform="matrix(-0.99992,0.0126229,0.00931323,0.737749,1202.76,382.733)">
                <path d="M519.515,1005.69C519.515,987.336 534.824,972.437 553.68,972.437C572.537,972.437 587.846,987.336 587.846,1005.69L587.846,1208.69C587.846,1227.05 572.537,1241.94 553.68,1241.94C534.824,1241.94 519.515,1227.05 519.515,1208.69L519.515,1005.69Z" style="fill:rgb(48,78,128);"/>
            </g>
            <g id="leg1_b2" serif:id="leg1_b" transform="matrix(-0.99992,0.0126229,0.00931323,0.737749,1116.31,382.733)">
                <path d="M519.515,1005.69C519.515,987.336 534.824,972.437 553.68,972.437C572.537,972.437 587.846,987.336 587.846,1005.69L587.846,1208.69C587.846,1227.05 572.537,1241.94 553.68,1241.94C534.824,1241.94 519.515,1227.05 519.515,1208.69L519.515,1005.69Z" style="fill:rgb(48,78,128);"/>
            </g>
            <g id="leg1_t2" serif:id="leg1_t" transform="matrix(-0.999936,-0.01135,-0.00837412,0.73776,1222.25,243.521)">
                <path d="M519.515,1005.69C519.515,987.336 534.824,972.437 553.68,972.437C572.537,972.437 587.846,987.336 587.846,1005.69L587.846,1208.69C587.846,1227.05 572.537,1241.94 553.68,1241.94C534.824,1241.94 519.515,1227.05 519.515,1208.69L519.515,1005.69Z" style="fill:rgb(48,78,128);"/>
            </g>
            <g transform="matrix(4.73929,0,0,4.73929,-1882.66,-5580.43)">
                <path d="M543.774,1378.91L543.774,1381.09C544.707,1391 536.791,1395.7 527.235,1395.78C517.61,1395.86 509.958,1391 510.697,1381.09L510.697,1378.91L543.774,1378.91Z" style="fill:rgb(48,78,127);"/>
            </g>
        </g>
    </g>
    <g>
        <g transform="matrix(1,0,0,1.11102,595.67,85.7908)">
            <path d="M354.955,432.314C353.417,428.891 352.569,425.145 352.569,421.221C352.569,404.995 367.067,391.821 384.924,391.821C385.962,391.821 386.989,391.866 388.002,391.953C393.181,381.982 404.349,375.076 417.278,375.076C430.208,375.076 441.376,381.982 446.555,391.953C447.568,391.866 448.595,391.821 449.633,391.821C460.843,391.821 470.729,397.013 476.536,404.892C478.308,404.618 480.13,404.476 481.987,404.476C499.268,404.476 513.402,416.812 514.297,432.314L354.955,432.314Z" style="fill:white;"/>
        </g>
        <g transform="matrix(1,0,0,1,-306.308,113.195)">
            <path d="M819.848,293.619C818.722,283.68 825.478,274.412 835.463,272.57C836.507,272.378 837.548,272.274 838.576,272.253C840.999,266.465 846.203,261.973 852.829,260.751C856.087,260.15 859.307,260.411 862.253,261.371C864.662,259.423 867.577,258.031 870.836,257.43C874.464,256.761 878.044,257.16 881.251,258.404C883.803,256.098 887.005,254.448 890.634,253.779C901.066,251.855 911.098,258.763 913.022,269.195C913.58,272.219 913.396,275.21 912.598,277.979C913.238,277.802 913.892,277.652 914.559,277.529C925.486,275.514 935.787,281.63 937.548,291.179C937.698,291.995 937.782,292.809 937.801,293.619L819.848,293.619Z" style="fill:white;"/>
        </g>
    </g>
    <path d="M1435.77,0L1435.77,1417.32L-80.288,1417.32L-80.288,0L1435.77,0ZM704.401,136.283C1051.71,136.283 1333.68,420.627 1333.68,770.86C1333.68,1121.09 1051.71,1405.44 704.401,1405.44C357.092,1405.44 75.12,1121.09 75.12,770.86C75.12,420.627 357.092,136.283 704.401,136.283Z" style="fill:rgb(255,253,234);"/>
    <g transform="matrix(1.4571,0,0,1.4571,289.097,39.2318)">
        <text x="155.608px" y="44.916px" style="font-family:'Futura-Medium', 'Futura', sans-serif;font-weight:500;font-size:50px;fill:rgb(99,150,171);stroke:rgb(99,150,171);stroke-width:0.69px;">Gas S<tspan x="293.426px 307.537px 337.517px " y="44.916px 44.916px 44.916px ">tat</tspan>ion</text>
    </g>
</svg>
